<?xml version="1.0" encoding="UTF-8"?>
<svg id="Layer_1" data-name="Layer 1" xmlns="http://www.w3.org/2000/svg" viewBox="0 0 202.22 86.04">
  <defs>
    <style>
      .cls-1 {
        isolation: isolate;
      }

      .cls-2 {
        fill: #fff;
        stroke-width: 0px;
      }
    </style>
  </defs>
  <g id="Layer_2" data-name="Layer 2">
    <g id="Layer_1-2" data-name="Layer 1-2">
      <path class="cls-2" d="M9.23,18.6c-1.1,0-1,0-1.4,1.1l-1.5,4.8c-.7,2.4-.3,2.5,1.2,2.7l1.2.2c.27.37.23.88-.1,1.2-1.31-.1-2.81-.1-4.41-.1-1.29,0-2.59,0-4,.1-.29-.2-.29-.7,0-1.2l1.21-.2c1.2-.2,1.6-.5,2.09-1.8.4-1.1,1.1-2.7,1.9-4.8l5.51-14.2c.5-1.3.89-2.2.7-3,1.39-.3,2.69-1.9,2.8-1.9.24-.03.48.09.6.3.6,1.8,1.2,3.6,1.79,5.5l5.7,16.6c1,2.7,1.1,2.9,3.1,3.3l.6.1c.3.34.3.86,0,1.2-1.6-.1-3.1-.1-5.1-.1-1.7,0-3.4.1-4.8.1-.28-.34-.32-.82-.1-1.2l.9-.1c1.4-.2,1.6-.4,1.1-2.1l-1.8-5.4c-.3-1.1-.5-1.1-1.6-1.1h-5.59ZM14.23,16.9c1.1,0,1.3-.1,1-1.1l-1.7-4.7c-.32-1.13-.72-2.23-1.2-3.3h-.1c-.1.3-.5,1.4-1.2,3.3l-1.8,4.6q-.3,1.2.6,1.2h4.4Z"/>
      <path class="cls-2" d="M32.52,12.7c0,.5.1.7.3.7,1.26-.78,2.7-1.23,4.18-1.3,4.6,0,7.6,3.4,7.6,7.8,0,5.7-4.2,8.9-9.4,8.9-1.78-.08-3.54-.45-5.2-1.1-.4.06-.76.27-1,.6h-.3c-.1,0-.4-.1-.4-.3s.1-2.2.1-3.7V6.6c0-2.7-.1-2.9-1-3.4l-.5-.3c-.25-.28-.25-.72,0-1C28.42,1.5,30.42.6,32,0c.21,0,.4.11.5.3-.1,1.6-.1,4.1-.1,5.8v6.6h.12ZM32.52,22c-.13,1.4.18,2.8.91,4,.63.86,1.63,1.38,2.7,1.4,2.7,0,4.09-2.5,4.09-5.9,0-4.6-2.5-7.2-5.2-7.2-.66.02-1.31.19-1.9.5-.3.2-.4.7-.4,2.1-.16,1.69-.23,3.4-.2,5.1Z"/>
      <path class="cls-2" d="M51.52,18.9c-.7,0-.9,0-.9.5-.16,3.37,2.44,6.23,5.81,6.39.06,0,.13,0,.19,0,1.57.1,3.07-.67,3.9-2,.41-.06.81.2.91.6-1.14,2.69-3.79,4.43-6.71,4.4-4.59,0-7.59-3.4-7.59-7.9s3-8.8,8.3-8.8c2.9,0,5.9,1.9,5.9,5.4.02.35-.05.69-.2,1-.2.4-1.2.5-2.8.5h-6.7v-.1h-.11ZM55.13,17.3c1.2,0,1.7-.1,1.9-.3.28-.21.43-.55.4-.9.04-1.39-1.05-2.56-2.44-2.6-.05,0-.11,0-.16,0-1.95.05-3.58,1.48-3.9,3.4,0,.1.1.3.5.3.2.1,3.7.1,3.7.1Z"/>
      <path class="cls-2" d="M65.52,17.7c0-1.8,0-2.2-1-2.9l-.4-.3c-.1-.33-.1-.67,0-1,1.74-.5,3.42-1.21,5-2.1.21,0,.4.11.5.3,0,.7-.1,1.4-.1,1.8s.1.4.41.4c1.19-.9,2.59-2,3.9-2,1.1-.06,2.04.79,2.1,1.9,0,0,0,0,0,0,.03,1.19-.91,2.17-2.1,2.2-.03,0-.07,0-.1,0-.39,0-.76-.11-1.1-.3-.57-.38-1.22-.62-1.9-.7-1,0-1.2,1-1.2,2.9v5.5c0,2.9.1,3.3,1.5,3.5l1.5.1c.27.37.23.88-.1,1.2-2.4-.1-3.7-.1-5.1-.1s-2.6,0-4.1.1c-.3-.1-.3-.9-.1-1.2l.7-.1c1.4-.2,1.5-.6,1.5-3.5v-5.7h.19Z"/>
      <path class="cls-2" d="M89.73,12.7c.53.53.78,1.26.7,2,0,1.3-.6,1.8-1,1.8s-.41-.1-.7-.4c-.9-1.2-2-2.5-3.6-2.5-2.2,0-4.6,2.2-4.6,6,0,3.2,2,6.2,5.7,6.2,1.72.18,3.39-.63,4.3-2.1.42.02.78.3.9.7-1.28,2.74-4.08,4.43-7.1,4.3-2.03-.02-3.98-.76-5.5-2.1-1.47-1.53-2.26-3.58-2.2-5.7,0-4.6,3.3-8.9,9.7-8.9,1.15.15,2.29.38,3.4.7Z"/>
      <path class="cls-2" d="M94.62,17.7c0-1.8,0-2.2-1-2.9l-.4-.3c-.1-.33-.1-.67,0-1,1.74-.5,3.42-1.21,5-2.1.21,0,.4.11.5.3,0,.7-.1,1.4-.1,1.8s.1.4.4.4c1.2-.9,2.6-2,3.91-2,1.07-.07,1.99.74,2.07,1.81,0,.03,0,.06,0,.09.03,1.18-.9,2.17-2.08,2.2-.04,0-.07,0-.11,0-.39,0-.76-.11-1.1-.3-.57-.38-1.22-.62-1.9-.7-1,0-1.2,1-1.2,2.9v5.5c0,2.9.1,3.3,1.5,3.5l1.5.1c.27.37.23.88-.1,1.2-2.4-.1-3.7-.1-5.1-.1s-2.6,0-4.1.1c-.3-.1-.3-.9-.1-1.2l.7-.1c1.4-.2,1.5-.6,1.5-3.5v-5.7h.21Z"/>
      <path class="cls-2" d="M123,20.3c0,5.7-4,8.6-8.69,8.6s-8.31-2.9-8.31-8c-.13-4.67,3.54-8.57,8.21-8.7.16,0,.32,0,.49,0,4.42,0,8.3,2.9,8.3,8.1ZM114.71,27.2c2.8,0,3.5-3.2,3.5-6.3,0-3.3-1.2-7.3-4.1-7.3-2,0-3.6,2-3.6,6.4.11,3.8,1.42,7.2,4.22,7.2h-.02Z"/>
      <path class="cls-2" d="M127.73,17.7c0-1.8,0-2.2-1-2.9l-.4-.3c-.1-.33-.1-.67,0-1,1.78-.48,3.5-1.19,5.1-2.1.22-.03.43.09.5.3-.07.6-.11,1.2-.1,1.8,0,.3.1.3.3.4,1.9-1.1,3-1.9,5.7-1.9,1.36,0,2.65.63,3.5,1.7.2.3.4.6.6.6.32-.07.63-.21.9-.4,1.43-1.12,3.18-1.75,5-1.8,3.3,0,4.8,2.2,4.8,5.4v6.1c0,2.9.1,3.3,1.5,3.5l.9.1c.3.3.1,1,0,1.2-1.7-.1-3-.1-4.5-.1-1.3,0-2.7,0-4.1.1-.31-.1-.31-.9-.11-1.2l.61-.1c1.39-.2,1.5-.6,1.5-3.5v-5.4c0-2.1-.7-3.6-3.2-3.6-1.03.02-2,.45-2.7,1.2-.4.4-.4,1-.4,2v5.8c0,2.9.1,3.4,1.5,3.6l.6.1c.27.37.23.88-.1,1.2-1.4-.1-2.7-.1-4.2-.1-1.3,0-2.7,0-4,.1-.3-.1-.3-.9-.1-1.2l.5-.1c1.4-.2,1.5-.6,1.5-3.6v-5.4c0-2.1-.7-3.6-3-3.6-1.07-.07-2.11.38-2.8,1.2-.4.6-.5,1-.5,2.6v5.3c0,2.9.1,3.4,1.5,3.6l.6.1c.27.37.23.88-.1,1.2-1.4-.1-2.8-.1-4.2-.1s-2.6,0-4.1.1c-.3-.1-.3-.9-.1-1.2l.7-.1c1.4-.2,1.5-.6,1.5-3.5l.4-6.1Z"/>
      <path class="cls-2" d="M162.73,12.7c0,.5.1.7.3.7,1.26-.79,2.71-1.24,4.2-1.3,4.6,0,7.6,3.4,7.6,7.8,0,5.7-4.2,8.9-9.4,8.9-1.78-.08-3.54-.45-5.2-1.1-.4.06-.76.27-1,.6h-.3c-.1,0-.4-.1-.4-.3s.1-2.2.1-3.7V6.6c0-2.7-.1-2.9-1-3.4l-.5-.3c-.25-.28-.25-.72,0-1,1.5-.4,3.5-1.3,5.1-1.9.21,0,.4.11.5.3-.1,1.6-.1,4.1-.1,5.8v6.6h.1ZM162.73,22c-.13,1.39.18,2.79.89,4,.63.86,1.63,1.38,2.7,1.4,2.7,0,4.11-2.5,4.11-5.9,0-4.6-2.5-7.2-5.2-7.2-.66.02-1.31.19-1.9.5-.3.2-.4.7-.4,2.1l-.2,5.1h0Z"/>
      <path class="cls-2" d="M183.62,23.6c0,2.9.11,3.3,1.5,3.5l.7.1c.27.37.23.88-.1,1.2-1.5-.1-2.8-.1-4.3-.1-1.3,0-2.7,0-4.2.1-.3-.1-.3-.9-.1-1.2l.7-.1c1.4-.2,1.5-.6,1.5-3.5v-5.8c0-1.8,0-2.2-1-2.9l-.4-.3c-.1-.33-.1-.67,0-1,1.77-.52,3.48-1.22,5.1-2.1.21,0,.4.11.5.3-.1,1.3-.1,3.2-.1,4.8l.2,7h0ZM179.12,6.2c-.04-1.29.98-2.37,2.27-2.4.08,0,.15,0,.23,0,1.33,0,2.4,1.07,2.4,2.4s-1.07,2.4-2.4,2.4h0c-1.35.03-2.47-1.05-2.5-2.4,0,0,0,0,0,0Z"/>
      <path class="cls-2" d="M192.32,18.9c-.7,0-.89,0-.89.5-.16,3.37,2.44,6.23,5.81,6.39.06,0,.13,0,.19,0,1.57.1,3.06-.67,3.89-2,.41-.06.8.2.9.6-1.14,2.69-3.78,4.42-6.7,4.4-4.6,0-7.6-3.4-7.6-7.9s3-8.8,8.3-8.8c2.9,0,5.9,1.9,5.9,5.4.02.35-.05.69-.2,1-.2.4-1.2.5-2.8.5h-6.7v-.1h-.1ZM196,17.3c1.2,0,1.7-.1,1.9-.3.28-.21.43-.55.39-.9.04-1.39-1.05-2.56-2.44-2.6-.05,0-.11,0-.16,0-1.95.05-3.58,1.48-3.9,3.4,0,.1.11.3.5.3.14.1,3.71.1,3.71.1Z"/>
      <g class="cls-1">
        <path class="cls-2" d="M98.78,53.45h-1.24l2.92-5.1-2.73-4.67h1.27l2.1,3.58,2.06-3.58h1.24l-2.66,4.67,3,5.1h-1.25l-2.35-4-2.36,4Z"/>
      </g>
      <g class="cls-1">
        <path class="cls-2" d="M10.59,68.56H1.49v-3.42h22.18v3.42h-9.1v16.94h-4l.02-16.94Z"/>
        <path class="cls-2" d="M27.87,65.14h4v20.36h-4v-20.36Z"/>
        <path class="cls-2" d="M45.73,65.14h4.54l9.88,20.36h-4.15l-2.13-4.68h-11.78l-2.16,4.68h-4.22l10.02-20.36ZM52.25,77.41l-4.25-9.07-4.26,9.07h8.51Z"/>
        <path class="cls-2" d="M74.85,65.14h12.26c2.04-.11,4.06.31,5.89,1.22,1.4.83,2.21,2.38,2.08,4,.06.92-.15,1.84-.62,2.64-.46.65-1.04,1.19-1.72,1.61,1.94.91,3.16,2.86,3.14,5,.1,1.73-.71,3.4-2.13,4.39-1.75,1.11-3.81,1.65-5.88,1.53h-13l-.02-20.39ZM87.36,73.14c.99.07,1.98-.11,2.87-.55.6-.4.94-1.08.89-1.8.04-.71-.3-1.4-.89-1.79-.89-.43-1.88-.61-2.87-.54h-8.54v4.73l8.54-.05ZM87.48,82.14c1.12.06,2.25-.15,3.27-.62.8-.47,1.25-1.37,1.15-2.3.07-.87-.37-1.71-1.13-2.15-1.03-.49-2.16-.71-3.29-.65h-8.66v5.78l8.66-.06Z"/>
        <path class="cls-2" d="M100.06,71.36c.44-1.29,1.16-2.47,2.1-3.46,1.06-1.08,2.36-1.9,3.8-2.39,3.62-1.16,7.52-1.16,11.14,0,1.43.49,2.73,1.31,3.79,2.39.95.98,1.67,2.16,2.1,3.46.45,1.33.67,2.72.66,4.12,0,1.21-.2,2.42-.59,3.57-.43,1.25-1.11,2.4-2,3.38-1.02,1.13-2.3,2.01-3.72,2.57-3.76,1.32-7.86,1.32-11.62,0-2.72-1.03-4.83-3.24-5.73-6-.38-1.15-.58-2.36-.59-3.57,0-1.38.22-2.76.66-4.07ZM114.5,82.22c.93-.24,1.82-.66,2.6-1.22.81-.57,1.47-1.34,1.9-2.23.49-1.11.73-2.31.7-3.52.13-2.04-.7-4.02-2.24-5.36-3.56-2.44-8.26-2.44-11.82,0-1.54,1.34-2.37,3.32-2.24,5.36-.04,1.2.2,2.4.7,3.5.43.9,1.09,1.67,1.9,2.25.78.56,1.67.97,2.6,1.2,1.95.49,3.99.49,5.94,0l-.04.02Z"/>
        <path class="cls-2" d="M127.47,71.36c.44-1.29,1.16-2.47,2.1-3.46,1.07-1.08,2.37-1.9,3.8-2.39,3.62-1.16,7.52-1.16,11.14,0,1.43.49,2.73,1.31,3.8,2.39.94.99,1.66,2.17,2.1,3.46.44,1.33.66,2.72.65,4.12,0,1.21-.2,2.42-.58,3.57-.9,2.76-3.01,4.97-5.73,6-3.76,1.32-7.86,1.32-11.62,0-2.72-1.03-4.83-3.24-5.73-6-.38-1.15-.57-2.36-.58-3.57,0-1.4.21-2.79.65-4.12ZM141.91,82.22c.93-.23,1.81-.64,2.6-1.19.81-.58,1.46-1.36,1.88-2.26.49-1.11.73-2.31.7-3.52.13-2.04-.7-4.02-2.24-5.36-3.56-2.44-8.26-2.44-11.82,0-1.54,1.34-2.37,3.32-2.24,5.36-.03,1.2.21,2.4.7,3.5.43.9,1.08,1.67,1.88,2.25.78.56,1.67.97,2.6,1.2,1.95.49,3.99.49,5.94,0v.02Z"/>
        <path class="cls-2" d="M162.1,68.56h-9.1v-3.42h22.17v3.42h-9.1v16.94h-4l.03-16.94Z"/>
        <path class="cls-2" d="M179.12,65.14h4v8.07h13.67v-8.07h4v20.36h-4v-8.76h-13.7v8.76h-4l.03-20.36Z"/>
      </g>
    </g>
  </g>
</svg>