<?xml version="1.0" encoding="utf-8"?>
<!-- Generator: Adobe Illustrator 28.0.0, SVG Export Plug-In . SVG Version: 6.00 Build 0)  -->
<svg version="1.1" id="Layer_1" xmlns="http://www.w3.org/2000/svg" xmlns:xlink="http://www.w3.org/1999/xlink" x="0px" y="0px"
	 viewBox="0 0 20 20" style="enable-background:new 0 0 20 20;" xml:space="preserve">
<style type="text/css">
	.st0{display:none;}
	.st1{display:inline;opacity:0.4;fill:#CF4A4A;enable-background:new    ;}
	
		.st2{display:inline;opacity:0.2;fill:none;stroke:#CF4A4A;stroke-width:5.000000e-02;stroke-miterlimit:10;enable-background:new    ;}
	.st3{fill:none;stroke:#253746;stroke-linejoin:round;stroke-miterlimit:10;}
	.st4{fill:none;stroke:#253746;stroke-linecap:round;stroke-linejoin:round;stroke-miterlimit:10;}
	.st5{fill:none;stroke:#253746;stroke-width:0.75;stroke-linecap:round;stroke-linejoin:round;stroke-miterlimit:10;}
</style>
<g id="Grid" class="st0">
	<path class="st1" d="M0,0v20h20V0H0z M18,19H1V2h17V19z"/>
	<circle class="st2" cx="9.5" cy="10.5" r="8"/>
	<rect x="2" y="3" class="st2" width="15" height="15"/>
	<rect x="3" y="2" class="st2" width="13" height="17"/>
	<rect x="1" y="4" class="st2" width="17" height="13"/>
</g>
<g id="Icon">
	<line class="st3" x1="8.9" y1="15.5" x2="10.9" y2="15.5"/>
	<path class="st4" d="M8.1,2.6l0.9,0.9h1.8l0.9-0.9 M13.7,17.4H6.5c-0.6,0-1-0.4-1-1V3.6c0-0.6,0.4-1,1-1h7.2c0.6,0,1,0.4,1,1v12.8
		C14.7,16.9,14.2,17.4,13.7,17.4z"/>
	<path class="st5" d="M2.5,11.5c0,0-2.2-3.6,0-6.1 M3.5,10.4c0,0-1.4-2.3,0-3.9"/>
	<path class="st5" d="M17.4,11.5c0,0,2.2-3.6,0-6.1"/>
	<path class="st5" d="M16.6,10.4c0,0,1.4-2.3,0-3.9"/>
</g>
</svg>
