<?xml version="1.0" encoding="UTF-8"?><svg id="Layer_1" xmlns="http://www.w3.org/2000/svg" viewBox="0 0 299.98 49.02"><defs><style>.cls-1{fill:#133445;}</style></defs><g><path class="cls-1" d="M59.95,24.97c-1.32,0-1.25,0-1.74,1.46l-2.09,6.34c-1.05,3.14-.84,3.28,1.05,3.56l1.46,.28c.35,.35,.28,1.32-.07,1.53-1.67-.07-3.35-.07-5.44-.14-1.67,0-3.28,.07-5.09,.14-.35-.28-.42-1.05-.07-1.53l1.53-.28c1.46-.21,2.02-.7,2.86-2.44,.63-1.39,1.39-3.63,2.51-6.48l7.04-18.96c.7-1.67,1.12-3,.98-3.9,1.81-.35,3.49-2.58,3.63-2.58,.42,0,.63,.14,.84,.42,.84,2.37,1.46,4.88,2.3,7.32l7.39,22.31c1.19,3.56,1.46,3.9,4.04,4.39l.77,.14c.42,.35,.42,1.25,.07,1.53-2.09-.07-3.97-.14-6.69-.14-2.23,0-4.46,.07-6.27,.14-.42-.28-.49-1.19-.14-1.53l1.12-.14c1.81-.21,2.02-.56,1.32-2.79l-2.44-7.25c-.49-1.46-.7-1.46-2.09-1.46h-6.76v.07Zm6.2-2.37c1.39,0,1.67-.14,1.25-1.39l-2.16-6.41c-.91-2.79-1.19-3.83-1.46-4.18h-.07c-.21,.35-.63,1.67-1.53,4.18l-2.16,6.27c-.56,1.53-.42,1.53,.84,1.53h5.3Z"/><path class="cls-1" d="M89.44,17.02c0,.77,.07,.98,.42,.98,1.67-1.05,3.35-1.67,5.37-1.67,6,0,9.83,4.6,9.83,10.53,0,7.6-5.44,11.92-12.2,11.92-3.76,0-6.2-1.46-6.83-1.46s-.98,.49-1.32,.84c-.07,.07-.21,.07-.35,.07-.21,0-.49-.21-.49-.35,0-.21,.14-3.07,.14-5.02V8.86c0-3.56-.07-3.97-1.19-4.6l-.77-.49c-.28-.21-.35-1.05,0-1.19,1.95-.63,4.6-1.74,6.76-2.58,.28-.07,.63,.21,.7,.42-.07,2.16-.14,5.44-.14,7.74v8.85h.07Zm0,12.48c0,2.37,.35,4.18,1.12,5.3,.7,1.05,1.95,1.81,3.42,1.81,3.42,0,5.37-3.35,5.37-7.88,0-6.2-3.21-9.55-6.83-9.55-1.05,0-2.09,.35-2.51,.7-.49,.35-.56,1.05-.56,2.79v6.83h0Z"/><path class="cls-1" d="M114.05,25.39c-.98,0-1.05,.07-1.05,.7,0,4.81,3.14,8.64,7.74,8.64,2.09,0,3.76-.7,4.95-2.65,.49-.21,1.05,.35,1.12,.84-1.74,4.25-5.51,5.86-8.71,5.86-5.93,0-9.9-4.6-9.9-10.67s3.97-11.78,10.81-11.78c3.83,0,7.74,2.58,7.74,7.18,0,.49-.07,.84-.28,1.19-.28,.49-1.46,.7-3.49,.7h-8.92Zm4.74-2.09c1.46,0,2.16-.14,2.51-.35,.28-.21,.49-.63,.49-1.12,0-1.88-1.19-3.42-3.42-3.42-3.42,0-5.02,3.42-5.02,4.6,0,.21,.14,.35,.7,.35h4.74v-.07Z"/><path class="cls-1" d="M131.13,23.85c0-2.44,0-3.07-1.32-3.83l-.63-.35c-.14-.21-.14-.98,.07-1.25,2.23-.7,4.95-1.88,6.48-2.86,.28,0,.63,.14,.7,.49-.07,.98-.07,1.88-.07,2.37,0,.35,.21,.63,.49,.63,1.6-1.19,3.28-2.79,5.02-2.79s2.86,1.25,2.86,2.58c0,2.09-1.46,3.07-2.86,3.07-.56,0-.98-.14-1.39-.42-1.25-.91-2.16-.98-2.44-.98-1.19,0-1.46,1.19-1.46,3.83v7.32c0,3.97,.21,4.53,2.02,4.74l2.02,.21c.35,.35,.28,1.32-.14,1.53-3.07-.07-4.81-.14-6.69-.14-1.67,0-3.42,.07-5.37,.14-.42-.21-.42-1.19-.07-1.53l.91-.14c1.74-.28,1.95-.84,1.95-4.81v-7.81h-.07Z"/><path class="cls-1" d="M162.08,17.02c.7,.63,1.05,1.46,1.05,2.72,0,1.67-.91,2.51-1.25,2.51s-.63-.07-.98-.56c-1.12-1.53-2.65-3.28-4.67-3.28-2.93,0-5.93,3-5.93,8.02,0,4.32,2.65,8.37,7.32,8.37,3.35,0,4.53-1.25,5.58-2.79,.49-.07,1.05,.35,1.05,.98-1.81,4.32-5.79,5.79-9.06,5.79-2.72,0-5.44-1.12-7.11-2.86-1.81-1.81-3-4.6-3-7.67,0-6.2,4.39-11.92,12.62-11.92,1.46,0,2.93,.14,4.39,.7Z"/><path class="cls-1" d="M168.57,23.85c0-2.44,0-3.07-1.25-3.83l-.63-.35c-.14-.21-.14-.98,.07-1.25,2.23-.7,4.95-1.88,6.48-2.86,.28,0,.63,.14,.7,.49-.07,.98-.07,1.88-.07,2.37,0,.35,.21,.63,.49,.63,1.6-1.19,3.28-2.79,5.02-2.79s2.79,1.25,2.79,2.58c0,2.09-1.46,3.07-2.86,3.07-.49,0-.98-.14-1.39-.42-1.25-.91-2.16-.98-2.51-.98-1.19,0-1.46,1.19-1.46,3.83v7.32c0,3.97,.21,4.53,2.02,4.74l2.02,.21c.35,.35,.28,1.32-.07,1.53-3.07-.07-4.81-.14-6.76-.14-1.67,0-3.42,.07-5.3,.14-.42-.21-.42-1.19-.07-1.53l.91-.14c1.74-.28,1.95-.84,1.95-4.81v-7.81h-.07Z"/><path class="cls-1" d="M204.54,27.27c0,7.53-5.16,11.5-11.22,11.5s-10.81-3.9-10.81-10.88,5.23-11.57,11.22-11.57c5.79,0,10.81,4.04,10.81,10.95Zm-10.67,9.34c3.56,0,4.53-4.39,4.53-8.44,0-4.46-1.46-9.76-5.3-9.76-2.58,0-4.67,2.79-4.67,8.71,.07,4.81,1.74,9.48,5.44,9.48Z"/><path class="cls-1" d="M208.58,23.85c0-2.44,0-3.07-1.32-3.83l-.63-.35c-.14-.21-.14-.98,.07-1.25,2.23-.63,5.02-1.88,6.69-2.86,.35,0,.56,.21,.63,.42-.07,.98-.07,2.02-.07,2.44,0,.35,.14,.49,.42,.56,2.51-1.39,3.83-2.65,7.32-2.65,2.23,0,3.9,1.25,4.6,2.23,.28,.49,.63,.84,.84,.84s.49-.14,1.12-.56c2.44-1.53,4.18-2.51,6.55-2.51,4.32,0,6.27,2.93,6.27,7.11v8.23c0,3.97,.21,4.53,1.95,4.81l1.12,.14c.49,.35,.21,1.32,0,1.53-2.23-.07-3.97-.14-5.86-.14-1.67,0-3.49,.07-5.3,.14-.42-.21-.49-1.19-.14-1.53l.84-.14c1.74-.28,1.95-.84,1.95-4.81v-7.25c0-2.79-.91-4.95-4.18-4.95-1.46,0-2.79,.77-3.42,1.6-.49,.63-.63,1.25-.63,2.79v7.81c0,3.97,.21,4.53,1.95,4.81l.77,.14c.35,.35,.28,1.32-.14,1.53-1.81-.07-3.49-.14-5.37-.14-1.67,0-3.42,.07-5.16,.14-.42-.21-.49-1.19-.14-1.53l.7-.14c1.74-.28,1.95-.91,1.95-4.81v-7.25c0-2.79-.91-4.95-3.9-4.95-1.74,0-3.07,.84-3.63,1.67-.63,.84-.63,1.32-.63,3.42v7.11c0,3.97,.21,4.53,1.95,4.81l.77,.14c.35,.35,.28,1.32-.14,1.53-1.81-.07-3.56-.14-5.44-.14-1.67,0-3.42,.07-5.37,.14-.42-.21-.49-1.19-.14-1.53l.91-.14c1.74-.28,1.95-.84,1.95-4.81v-7.81h.28Z"/><path class="cls-1" d="M251.95,17.02c0,.77,.14,.98,.42,.98,1.67-1.05,3.35-1.67,5.37-1.67,6,0,9.83,4.6,9.83,10.53,0,7.6-5.44,11.92-12.13,11.92-3.83,0-6.2-1.46-6.83-1.46s-.98,.49-1.32,.84c-.07,.07-.21,.07-.35,.07-.21,0-.49-.21-.49-.35,0-.21,.14-3.07,.14-5.02V8.86c0-3.56-.07-3.97-1.19-4.6l-.7-.49c-.28-.21-.35-1.05,0-1.19,1.95-.63,4.6-1.74,6.76-2.58,.28-.07,.63,.21,.7,.42-.07,2.16-.14,5.44-.14,7.74v8.85h-.07Zm0,12.48c0,2.37,.28,4.18,1.12,5.3,.7,1.05,1.95,1.81,3.42,1.81,3.42,0,5.37-3.35,5.37-7.88,0-6.2-3.21-9.55-6.83-9.55-1.05,0-2.09,.35-2.51,.7-.49,.35-.56,1.05-.56,2.79v6.83h0Z"/><path class="cls-1" d="M276.97,31.66c0,3.9,.21,4.53,1.95,4.81l.91,.14c.35,.35,.28,1.32-.07,1.53-1.88-.07-3.63-.14-5.51-.14-1.67,0-3.42,.07-5.37,.14-.42-.21-.49-1.19-.14-1.53l.91-.14c1.74-.28,1.95-.84,1.95-4.81v-7.81c0-2.44,0-3.07-1.25-3.83l-.63-.35c-.14-.21-.14-.98,.07-1.25,2.65-.77,5.23-1.95,6.69-2.86,.28,.07,.56,.14,.7,.42-.07,1.74-.14,4.32-.14,6.48v9.2h-.07Zm-6-25.72c0-1.95,1.32-3.35,3.28-3.35s3.28,1.46,3.28,3.35-1.32,3.35-3.28,3.35-3.28-1.46-3.28-3.35Z"/><path class="cls-1" d="M287.22,25.39c-.98,0-1.05,.07-1.05,.7,0,4.81,3.21,8.64,7.74,8.64,2.09,0,3.76-.7,4.95-2.65,.49-.21,1.12,.35,1.12,.84-1.74,4.25-5.58,5.86-8.64,5.86-5.93,0-9.9-4.6-9.9-10.67s3.97-11.78,10.81-11.78c3.76,0,7.67,2.58,7.67,7.18,0,.49-.07,.84-.28,1.19-.28,.49-1.53,.7-3.56,.7h-8.85Zm4.74-2.09c1.46,0,2.16-.14,2.51-.35,.28-.21,.49-.63,.49-1.12,0-1.88-1.19-3.42-3.35-3.42-3.42,0-5.02,3.42-5.02,4.6,0,.21,.07,.35,.7,.35h4.67v-.07Z"/></g><path class="cls-1" d="M2.72,36.47c.77-1.19,3.07-4.88,4.25-6.69,3.76-5.79,7.25-9.2,8.85-9.2,.56,0,1.19,.56,.98,1.46-.07,.7-4.53,10.32-5.86,13.66-.21,.49-.28,.98-.28,1.32,0,.56,.42,.91,.77,.91,.56,0,1.32-.42,2.02-1.53,1.39-2.23,3.56-6.13,5.86-9.34,2.3-3.14,5.23-6.34,6.69-6.34,1.12,0,1.19,1.46,.42,3.07-.49,1.39-5.79,12.13-6.07,12.76-.14,.28-.07,.56,.07,.7,.28,.42,.77,.63,1.05,.63,2.02,0,7.04-3.56,8.71-5.72,.28-.35,.56-1.05,.56-1.39,0-.28-.42-.28-.91,.14-1.67,1.39-4.04,3-4.88,3.14-.21,.07-.42-.21-.07-.63,.91-2.02,3.69-7.81,4.39-9.13,.28-.49,.63-1.81,.63-2.58,0-1.19-.84-2.58-2.51-2.58-.84,0-2.3,.42-3.49,1.25-1.53,1.05-4.25,4.11-5.79,5.86-.21,.21-.49,.07-.35-.21,.77-1.81,1.6-3.56,1.6-4.74,0-1.12-1.25-2.16-2.44-2.16-1.05,0-2.16,.42-3.56,1.25-1.95,1.25-5.09,5.02-5.72,5.79-.49,.63-1.12,.49-.84-.07,.77-1.39,2.16-5.09,2.3-5.51,.07-.21,.07-.84-.28-1.05-.28-.21-.98-.42-1.74-.42-3.42,0-5.44,1.95-6,4.18-.21,.7,.07,1.05,.21,1.05,.21,0,.42-.21,.84-.63,1.53-1.67,2.58-2.23,3.63-2.23,.7,0,.77,.42,.49,1.05-1.95,4.18-4.53,9.97-5.72,12.34-.21,.42-.56,1.53-.56,1.95,.14,.77,.91,1.05,1.25,1.05,.49,0,.84-.49,1.46-1.39Z"/><path class="cls-1" d="M32.9,25.87c.21,0,.49-.42,.84-1.05,.91-1.88,2.02-3.28,2.65-3.28s.7,.84,.91,1.46c.28,1.05,.7,4.39,.7,8.09,0,5.37-1.32,10.32-3.28,12.62-1.81,2.09-3,2.86-4.32,2.86-.91,0-1.39-.91-2.02-1.39-.07-.14-.35-.21-.56-.21-.84,0-1.81,1.25-1.81,2.23,0,1.12,1.12,1.81,2.3,1.81,1.05,0,2.79-.42,4.74-2.02,1.95-1.67,3.49-3.56,4.74-5.16,.91-1.19,2.93-4.39,4.81-7.53,1.39-2.44,5.16-9.9,5.16-13.66,0-.49-.91-1.81-1.6-1.81-.21,0-.7,.42-.7,.7-.14,5.3-2.02,10.67-4.18,14.57-.28,.49-.84,.7-.77,.49,.35-5.44,.14-9.41-.42-12.34-.21-1.05-1.05-3.14-2.44-3.14-2.79,0-5.23,3.76-5.09,6,0,.42,.07,.77,.35,.77Z"/></svg>