<?xml version="1.0" encoding="UTF-8"?><svg id="Layer_2" xmlns="http://www.w3.org/2000/svg" xmlns:xlink="http://www.w3.org/1999/xlink" viewBox="0 0 7049.66 3055.85"><defs><style>.cls-1{fill:none;}.cls-2{clip-path:url(#clippath);}.cls-3{fill:#fff;}.cls-4{clip-path:url(#clippath-1);}</style><clipPath id="clippath"><rect class="cls-1" y="0" width="7049.66" height="3055.85"/></clipPath><clipPath id="clippath-1"><rect class="cls-1" y="0" width="7049.66" height="3055.85"/></clipPath></defs><g id="Layer_1-2"><g id="PRIMARY_LOGOMARK_-_WHITE"><g id="Layer_1-3"><g class="cls-2"><g class="cls-4"><path class="cls-3" d="m142.38,2886.54L2.46,2632.09h92.87l63.58,122.86c12.93,24.94,27.61,59.14,27.61,59.14h1.16s15.92-34.2,28.22-59.14l62.35-122.86h89.45l-140.01,254.45v160.04h-85.3v-160.04Z"/><path class="cls-3" d="m386.13,2840.18c0-124.09,78.87-216.19,202.96-216.19s202.27,92.1,202.27,216.19-78.19,215.66-202.27,215.66-202.96-91.57-202.96-215.66m318.17,0c0-82.86-37.64-147.27-114.68-147.27s-116.44,64.41-116.44,147.27,39.4,146.65,116.44,146.65,114.68-64.33,114.68-146.65"/><path class="cls-3" d="m878.58,2913.25v-281.16h85.23v281.16c0,42.93,21.81,73.07,78.87,73.07,54.09,0,79.33-31.3,79.33-74.21v-280.02h85.3v281.16c0,88.66-55.3,140.31-162.87,140.31s-165.86-50.42-165.86-140.31"/><path class="cls-3" d="m1302.26,2632.09h192.87c81.17,0,135.26,46.36,135.26,115.37,0,48.66-22.88,85.76-77.04,100.29v1.69c38.87,11.02,58.82,33.04,64.11,83.54,5.88,58.52,3.51,103.21,18.28,109.55v4.06h-81.79c-10.56-4.66-11.79-51.03-15.29-95.62-3.53-45.22-29.38-70.77-82.33-70.77h-68.78v166.4h-85.3v-414.49Zm85.3,183.15h90.5c46.52,0,69.4-23.71,69.4-56.76s-21.74-58.61-67.01-58.61h-92.88v115.37Z"/><path class="cls-3" d="m1906.87,2632.09h184.68c48.8,0,85.21,13.92,109.92,38.79,23.57,23.79,37.64,56.22,37.64,94.56,0,78.27-52.33,130.98-140.53,130.98h-103.51v150.18h-88.2v-414.51Zm88.2,195.93h88.2c44.69,0,68.24-24.32,68.24-62.05s-24.71-60.89-67.09-60.89h-89.36v122.94Z"/><polygon class="cls-3" points="2317.61 2632.09 2626.92 2632.09 2626.92 2702.78 2402.91 2702.78 2402.91 2795.59 2599.3 2795.59 2599.3 2864.51 2402.91 2864.51 2402.91 2976.44 2628.75 2976.44 2628.75 3046.59 2317.61 3046.59 2317.61 2632.09"/><path class="cls-3" d="m2735.39,2632.09h192.87c81.17,0,135.26,46.36,135.26,115.37,0,48.66-22.88,85.76-77.04,100.29v1.69c38.87,11.02,58.82,33.04,64.11,83.54,5.89,58.52,3.51,103.21,18.28,109.55v4.06h-81.79c-10.56-4.66-11.77-51.03-15.29-95.62-3.53-45.22-29.38-70.77-82.33-70.77h-68.85v166.4h-85.23v-414.49Zm85.23,183.15h90.59c46.5,0,69.45-23.71,69.45-56.76s-21.79-58.61-67.09-58.61h-92.95v115.37Z"/><path class="cls-3" d="m3151.5,2918.45h83.46c5.89,49.89,34.74,69.61,94.72,69.61,43.53,0,81.77-15.06,81.77-53.39,0-40.54-40.01-48.66-104.12-63.19-75.27-16.75-144.05-36.5-144.05-122.86,0-81.79,67.62-124.09,161.11-124.09s155.84,45.83,162.34,129.29h-81.77c-4.66-41.77-37.64-62.58-81.17-62.58-45.83,0-75.81,19.12-75.81,48.66,0,33.65,29.38,43.53,91.73,56.83,86.44,18.52,156.98,38.87,156.98,128.15,0,84-68.78,130.97-163.49,130.97-114.05,0-178.79-49.8-181.69-137.39"/><path class="cls-3" d="m3567.46,2840.18c0-124.09,78.87-216.19,202.96-216.19s202.27,92.1,202.27,216.19-78.2,215.66-202.27,215.66-202.96-91.57-202.96-215.66m318.17,0c0-82.86-37.64-147.27-114.68-147.27s-116.44,64.41-116.44,147.27,39.4,146.65,116.44,146.65,114.68-64.33,114.68-146.65"/><path class="cls-3" d="m4062.89,2632.09h86.46l139.99,231.27c13.46,22.65,29.38,57.99,29.38,57.99h1.16s-2.39-42.93-2.39-71.91v-217.35h84.16v414.49h-82.31l-143.54-228.98c-13.53-22.02-29.98-57.45-29.98-57.45h-1.23s2.37,43.53,2.37,72.53v213.9h-84.07v-414.49Z"/><path class="cls-3" d="m4621.21,2632.1h88.2l148.27,414.49h-88.82l-28.24-88.13h-151.78l-27.61,88.13h-86.46l146.44-414.49Zm-12.32,262.02h111.17l-37.66-119.43c-7.03-22.02-17.06-63.79-17.06-63.79h-1.23s-10.56,41.77-17.59,63.79l-37.64,119.43Z"/><polygon class="cls-3" points="4942.91 2632.09 5028.21 2632.09 5028.21 2976.44 5225.74 2976.44 5225.74 3046.59 4942.91 3046.59 4942.91 2632.09"/><path class="cls-3" d="m5505.21,2632.1h188.19c45.29,0,79.96,11.02,101.77,30.14,22.95,20.26,33.51,45.2,33.51,77.64,0,42.32-26.47,69.63-65.87,82.93v1.76c46.43,13.32,78.18,51.56,78.18,102.59,0,38.87-12.3,65.5-37.01,86.38-24.11,20.88-61.14,33.04-105.88,33.04h-192.87v-414.49Zm177.56,166.93c37.1,0,62.35-17.38,62.35-49.89,0-30.68-22.88-48.66-60.52-48.66h-94.09v98.54h92.26Zm-92.26,178.02h98.15c41.16,0,65.87-22.65,65.87-56.22,0-39.49-29.38-59.75-68.17-59.75h-95.86v115.97Z"/><polygon class="cls-3" points="5934.25 2632.09 6243.55 2632.09 6243.55 2702.78 6019.54 2702.78 6019.54 2795.59 6215.94 2795.59 6215.94 2864.51 6019.54 2864.51 6019.54 2976.44 6245.39 2976.44 6245.39 3046.59 5934.25 3046.59 5934.25 2632.09"/><path class="cls-3" d="m6326.71,2918.45h83.46c5.89,49.89,34.74,69.61,94.72,69.61,43.53,0,81.77-15.06,81.77-53.39,0-40.54-40.01-48.66-104.12-63.19-75.27-16.75-144.05-36.5-144.05-122.86,0-81.79,67.62-124.09,161.11-124.09s155.84,45.83,162.34,129.29h-81.77c-4.66-41.77-37.64-62.58-81.17-62.58-45.83,0-75.81,19.12-75.81,48.66,0,33.65,29.38,43.53,91.73,56.83,86.44,18.52,156.98,38.87,156.98,128.15,0,84-68.78,130.97-163.49,130.97-114.05,0-178.79-49.8-181.69-137.39"/><polygon class="cls-3" points="6710.37 2632.09 7048.59 2632.09 7048.59 2702.78 6922.13 2702.78 6922.13 3046.59 6836.83 3046.59 6836.83 2702.78 6710.37 2702.78 6710.37 2632.09"/><path class="cls-3" d="m642.34,1184.79L0,0h426.35l291.47,572.15c59.39,116.05,126.87,275.32,126.87,275.32h5.41s72.91-159.27,129.58-275.32L1265.75,0h410.24l-642.33,1184.8v744.86h-391.31v-744.86Z"/><path class="cls-3" d="m2105.17,0h847.52c223.99,0,391.31,64.79,504.65,180.83,107.95,110.65,172.73,261.79,172.73,439.86,0,364.39-240.23,609.94-645.05,609.94h-475.03v699.02h-404.83V0Zm404.83,912.18h404.83c205.19,0,313.12-113.34,313.12-288.78s-113.34-283.37-307.71-283.37h-410.24v572.15Z"/><path class="cls-3" d="m4094.4,0h863.63c207.88,0,367.08,51.26,466.91,140.33,105.24,94.47,153.92,210.53,153.92,361.67,0,197.02-121.46,323.82-302.29,385.9v8.12c213.17,62.08,358.98,240.21,358.98,477.66,0,180.85-56.69,305.02-170.03,402.14-110.63,97.17-280.79,153.84-485.85,153.84h-885.26V0Zm815.06,777.27c170.03,0,286.07-80.95,286.07-232.11,0-143.04-105.22-226.7-277.95-226.7h-431.75v458.81h423.63Zm-423.63,828.52h450.69c188.95,0,302.29-105.24,302.29-261.79,0-183.49-134.99-277.95-313.12-277.95h-439.86v539.74Z"/><polygon class="cls-3" points="6468.52 1583.8 6251.58 1366.86 6615.76 1002.64 6251.58 638.46 6468.52 421.52 7049.64 1002.64 6468.52 1583.8"/><polygon class="cls-3" points="6468.52 1583.8 6251.58 1366.86 6615.76 1002.64 6251.58 638.46 6468.52 421.52 7049.64 1002.64 6468.52 1583.8"/></g></g></g></g></g></svg>